<svg width="23" height="24" viewBox="0 0 23 24" fill="none" xmlns="http://www.w3.org/2000/svg">
<path d="M9.97998 14.4562L10.2764 14.4576C14.6807 14.4993 17.1833 15.4875 17.1833 18.1362C17.1833 20.7224 14.8002 21.7088 10.5684 21.7897L9.97998 21.7952C5.39172 21.7952 2.77667 20.8227 2.77667 18.1152C2.77667 15.4106 5.38017 14.4562 9.97998 14.4562ZM9.97998 15.9562L9.67206 15.9578C6.02613 15.996 4.14838 16.722 4.14838 18.1152C4.14838 19.5553 6.13785 20.2952 9.97998 20.2952C13.827 20.2952 15.8116 19.5674 15.8116 18.1362C15.8116 16.696 13.8221 15.9562 9.97998 15.9562ZM18.509 7.91908C18.8562 7.91908 19.1432 8.20123 19.1886 8.56731L19.1949 8.66908L19.1942 9.92388L20.3799 9.92398C20.7587 9.92398 21.0658 10.2598 21.0658 10.674C21.0658 11.0537 20.8078 11.3675 20.473 11.4171L20.3799 11.424L19.1942 11.4239L19.1949 12.6791C19.1949 13.0933 18.8878 13.4291 18.509 13.4291C18.1618 13.4291 17.8748 13.1469 17.8294 12.7808L17.8231 12.6791L17.8225 11.4239L16.6397 11.424C16.2609 11.424 15.9539 11.0882 15.9539 10.674C15.9539 10.2943 16.2119 9.98049 16.5467 9.93082L16.6397 9.92398L17.8225 9.92388L17.8231 8.66908C17.8231 8.25486 18.1302 7.91908 18.509 7.91908ZM9.97998 1.99988C12.6779 1.99988 14.8432 4.36766 14.8432 7.31788C14.8432 10.2674 12.6776 12.6359 9.97998 12.6359C7.283 12.6359 5.11681 10.2671 5.11681 7.31788C5.11681 4.36799 7.28271 1.99988 9.97998 1.99988ZM9.97998 3.49988C8.04024 3.49988 6.48852 5.19646 6.48852 7.31788C6.48852 9.43866 8.04058 11.1359 9.97998 11.1359C11.92 11.1359 13.4714 9.43904 13.4714 7.31788C13.4714 5.19609 11.9203 3.49988 9.97998 3.49988Z" fill="#666666"/>
</svg>
