<svg width="23" height="24" viewBox="0 0 23 24" fill="none" xmlns="http://www.w3.org/2000/svg">
<path d="M15.9071 2C19.0083 2 21.0658 4.41665 21.0658 7.89317V16.1068C21.0658 19.5833 19.0083 22 15.9071 22H7.93503C4.8338 22 2.77631 19.5833 2.77631 16.1068V7.89317C2.77631 4.4199 4.83923 2 7.93503 2H15.9071ZM15.9071 3.39535H7.93503C5.56475 3.39535 4.05232 5.16949 4.05232 7.89317V16.1068C4.05232 18.8341 5.55971 20.6047 7.93503 20.6047H15.9071C18.2824 20.6047 19.7898 18.8341 19.7898 16.1068V7.89317C19.7898 5.16587 18.2824 3.39535 15.9071 3.39535ZM7.98364 9.6295C8.30664 9.6295 8.57358 9.89197 8.61582 10.2325L8.62165 10.3272V16.7087C8.62165 17.094 8.336 17.4064 7.98364 17.4064C7.66064 17.4064 7.39371 17.1439 7.35146 16.8034L7.34564 16.7087V10.3272C7.34564 9.94186 7.63128 9.6295 7.98364 9.6295ZM11.9535 6.57593C12.2764 6.57593 12.5434 6.8384 12.5856 7.17893L12.5915 7.2736V16.7087C12.5915 17.094 12.3058 17.4064 11.9535 17.4064C11.6305 17.4064 11.3635 17.1439 11.3213 16.8034L11.3154 16.7087V7.2736C11.3154 6.88829 11.6011 6.57593 11.9535 6.57593ZM15.8584 13.0017C16.1814 13.0017 16.4484 13.2642 16.4906 13.6047L16.4965 13.6994V16.7087C16.4965 17.094 16.2108 17.4064 15.8584 17.4064C15.5354 17.4064 15.2685 17.1439 15.2263 16.8034L15.2204 16.7087V13.6994C15.2204 13.3141 15.5061 13.0017 15.8584 13.0017Z" fill="#666666"/>
</svg>
