<svg width="22" height="24" viewBox="0 0 22 24" fill="none" xmlns="http://www.w3.org/2000/svg">
<path d="M14.49 2C17.4094 2 19.155 3.92 19.1824 7.132V16.791C19.1824 20.048 17.4322 22 14.49 22H7.43348C7.05713 22 6.69997 21.968 6.36381 21.905L6.16468 21.864C3.99886 21.371 2.74011 19.555 2.74011 16.791V7.209C2.74011 6.875 2.75838 6.555 2.79492 6.249C3.11372 3.564 4.79905 2 7.43348 2H14.49ZM14.4817 3.457H7.43348C5.19002 3.457 4.05276 4.72 4.05276 7.209V16.791C4.05276 19.28 5.19002 20.543 7.43348 20.543H14.4817C16.7243 20.543 17.8542 19.28 17.8542 16.791V7.209C17.8542 4.72 16.7243 3.457 14.4817 3.457ZM14.2433 15.51C14.6032 15.51 14.8946 15.834 14.8946 16.234C14.8946 16.634 14.6032 16.958 14.2433 16.958H7.65636C7.29646 16.958 7.00415 16.634 7.00415 16.234C7.00415 15.834 7.29646 15.51 7.65636 15.51H14.2433ZM14.2433 11.271C14.4945 11.241 14.7403 11.373 14.8745 11.61C15.0088 11.849 15.0088 12.151 14.8745 12.39C14.7403 12.627 14.4945 12.759 14.2433 12.729H7.65636C7.32203 12.687 7.06901 12.374 7.06901 12C7.06901 11.626 7.32203 11.312 7.65636 11.271H14.2433ZM10.1702 7.042C10.5045 7.083 10.7576 7.397 10.7576 7.771C10.7576 8.144 10.5045 8.458 10.1702 8.499H7.66458C7.32934 8.458 7.07631 8.144 7.07631 7.771C7.07631 7.397 7.32934 7.083 7.66458 7.042H10.1702Z" fill="#666666"/>
</svg>
