<svg width="27" height="24" viewBox="0 0 27 24" fill="none" xmlns="http://www.w3.org/2000/svg">
<path d="M13.7771 2C19.6818 2 24.4686 6.47716 24.4686 12C24.4686 17.5228 19.6818 22 13.7771 22C7.87242 22 3.08569 17.5228 3.08569 12C3.08569 6.47716 7.87242 2 13.7771 2ZM13.7771 3.39535C8.69633 3.39535 4.57752 7.24779 4.57752 12C4.57752 16.7522 8.69633 20.6047 13.7771 20.6047C18.8579 20.6047 22.9767 16.7522 22.9767 12C22.9767 7.24779 18.8579 3.39535 13.7771 3.39535ZM12.4593 8.04465L12.5706 8.05454C12.7716 8.08299 13.0435 8.16839 13.2846 8.2575C14.3807 8.65585 16.5264 10.0036 17.3465 10.8211L17.5855 11.0598L17.6707 11.152C17.8451 11.3587 17.9364 11.612 17.9364 11.8715C17.9364 12.1158 17.8546 12.357 17.6976 12.5567C17.6554 12.6104 17.6058 12.6617 17.4954 12.772L17.207 13.0528C16.3385 13.8463 14.4589 15.0232 13.3916 15.4432C13.0953 15.5596 12.6691 15.6921 12.4662 15.6963C11.9905 15.7104 11.543 15.4649 11.3229 15.0673C11.2653 14.9626 11.1933 14.7142 11.1391 14.4811L11.0847 14.2189C10.9855 13.6482 10.9317 12.7822 10.9327 11.8723L10.9343 11.5838C10.9441 10.7263 11.002 9.94479 11.1017 9.43665C11.1414 9.22989 11.2296 8.87387 11.2806 8.75855C11.3916 8.50941 11.5918 8.30819 11.8397 8.18402C12.0313 8.08735 12.2487 8.03789 12.4593 8.04465ZM12.6075 9.51163L12.5795 9.63757L12.5432 9.83642C12.4676 10.319 12.4237 11.0688 12.4246 11.8723L12.4261 12.151C12.4351 12.8877 12.4823 13.5646 12.5567 13.9922L12.6085 14.227L12.8137 14.1568C13.7581 13.7852 15.6324 12.5965 16.2672 11.9564L16.353 11.8698L16.1265 11.6515C15.3653 10.9698 13.5811 9.86225 12.7403 9.55667L12.6075 9.51163Z" fill="#666666"/>
</svg>
