<svg width="22" height="24" viewBox="0 0 22 24" fill="none" xmlns="http://www.w3.org/2000/svg">
<rect width="22" height="24" fill="#E5E5E5"/>
<g id="Desktop - 1">
<g clip-path="url(#clip0_0_1)">
<rect x="-366" y="-648" width="1440" height="1024" rx="34" fill="#F7F7F7"/>
<g id="Hashtags">
<rect id="Rectangle 2.1" x="-226" y="-12" width="278" height="188" rx="18" fill="#FCFDFD"/>
</g>
<g id="Plus">
<g id="Iconly/Light outline/Plus">
<g id="Plus_2">
<path id="Vector" d="M14.9597 2C18.0609 2 20.1184 4.41665 20.1184 7.89317V16.1068C20.1184 19.5833 18.0609 22 14.9597 22H6.98767C3.88644 22 1.82895 19.5833 1.82895 16.1068V7.89317C1.82895 4.4199 3.89187 2 6.98767 2H14.9597ZM14.9597 3.39535H6.98767C4.61739 3.39535 3.10496 5.16949 3.10496 7.89317V16.1068C3.10496 18.8341 4.61235 20.6047 6.98767 20.6047H14.9597C17.335 20.6047 18.8424 18.8341 18.8424 16.1068V7.89317C18.8424 5.16587 17.335 3.39535 14.9597 3.39535ZM10.9737 7.88587C11.2967 7.88587 11.5636 8.14834 11.6059 8.48887L11.6117 8.58354L11.6111 11.293L14.0928 11.2935C14.4452 11.2935 14.7308 11.6058 14.7308 11.9911C14.7308 12.3444 14.4908 12.6363 14.1794 12.6825L14.0928 12.6888L11.6111 12.688L11.6117 15.3988C11.6117 15.7841 11.326 16.0964 10.9737 16.0964C10.6507 16.0964 10.3838 15.834 10.3415 15.4934L10.3357 15.3988L10.3354 12.688L7.85455 12.6888C7.50219 12.6888 7.21655 12.3765 7.21655 11.9911C7.21655 11.6379 7.45657 11.346 7.76798 11.2998L7.85455 11.2935L10.3354 11.293L10.3357 8.58354C10.3357 8.19823 10.6213 7.88587 10.9737 7.88587Z" fill="#666666"/>
</g>
</g>
</g>
</g>
</g>
<defs>
<clipPath id="clip0_0_1">
<rect x="-366" y="-648" width="1440" height="1024" rx="34" fill="white"/>
</clipPath>
</defs>
</svg>
