<svg width="23" height="24" viewBox="0 0 23 24" fill="none" xmlns="http://www.w3.org/2000/svg">
<path d="M12.4845 2C13.1329 1.99971 13.7537 2.28061 14.2057 2.77871C14.6576 3.27681 14.9021 3.94968 14.8825 4.57766L14.8902 4.72535C14.906 4.87079 14.9502 5.01116 15.0219 5.14054C15.1615 5.39567 15.3901 5.58081 15.6573 5.65514C15.9245 5.72947 16.2083 5.68688 16.4771 5.51839L16.6269 5.4355C17.7517 4.86897 19.1007 5.31918 19.7246 6.47928L20.2853 7.52174C20.3001 7.54922 20.3131 7.57762 20.3244 7.60674L20.3764 7.71842C20.8779 8.86519 20.5211 10.2293 19.5683 10.9223L19.333 11.0807C19.21 11.1726 19.1075 11.2926 19.0303 11.4368C18.8911 11.6929 18.8528 11.998 18.9241 12.2844C18.9954 12.5708 19.1703 12.8149 19.4357 12.9793L19.5883 13.0841C20.0495 13.4297 20.3827 13.9391 20.528 14.523C20.692 15.1817 20.604 15.8833 20.2793 16.4804L19.6761 17.557L19.5851 17.7089C18.8764 18.8008 17.5003 19.1344 16.4502 18.485L16.3257 18.4163C16.1959 18.3541 16.0558 18.3199 15.9283 18.316C15.6509 18.3146 15.3844 18.432 15.1882 18.6422C14.9921 18.8524 14.8825 19.1379 14.8832 19.4698L14.8758 19.6414C14.7742 20.9703 13.7358 22 12.4848 22H11.3551C10.0301 22 8.95604 20.8493 8.95738 19.4753L8.94962 19.3277C8.93384 19.1822 8.88964 19.0418 8.81434 18.9057C8.67777 18.65 8.45149 18.4633 8.1858 18.3871C7.92012 18.3109 7.63704 18.3516 7.36303 18.5213L7.20022 18.6084C6.68535 18.8565 6.1046 18.9023 5.56042 18.7366C4.94645 18.5497 4.42733 18.1083 4.12439 17.5224L3.54157 16.4442L3.464 16.2844C2.93324 15.0841 3.34928 13.6412 4.40516 12.9875L4.50146 12.9228C4.78353 12.7137 4.95267 12.3688 4.95267 12C4.95267 11.599 4.75297 11.2284 4.40364 11.0115L4.26189 10.9141C3.24273 10.1548 2.93134 8.68049 3.5627 7.50696L4.15645 6.46166C4.8168 5.23376 6.2802 4.81017 7.40573 5.50171L7.52757 5.5713C7.65178 5.63238 7.7867 5.6648 7.91661 5.66628C8.48944 5.66634 8.95613 5.17352 8.96481 4.54181L8.97259 4.3478C9.0195 3.74716 9.26277 3.1827 9.66046 2.75457C10.1092 2.27155 10.719 2 11.3551 2H12.4845ZM12.4848 3.44774H11.3551C11.0785 3.44774 10.8133 3.56581 10.6183 3.77582C10.4454 3.96196 10.3396 4.20741 10.321 4.43661L10.3087 4.7415C10.2141 6.07087 9.17738 7.11416 7.90953 7.11398C7.58271 7.11034 7.26052 7.03293 6.93196 6.87026L6.75604 6.77085C6.25482 6.46315 5.6157 6.64815 5.31911 7.19925L4.72535 8.24455C4.45328 8.75044 4.58935 9.39466 5.01062 9.70925L5.24904 9.871C5.90564 10.3467 6.30397 11.1429 6.30397 12C6.30397 12.8446 5.91676 13.634 5.24743 14.1296L5.10495 14.2256C4.63596 14.5163 4.45497 15.144 4.67295 15.6383L4.72442 15.7449L5.29985 16.8084C5.43498 17.0696 5.6617 17.2624 5.92984 17.344C6.1675 17.4164 6.42115 17.3964 6.61904 17.3018L6.71846 17.2497C7.26728 16.9066 7.9213 16.8126 8.53513 16.9886C9.14895 17.1645 9.67173 17.5959 9.98182 18.1768C10.1486 18.478 10.2542 18.8132 10.2951 19.1985L10.3135 19.552C10.3704 20.1145 10.815 20.5523 11.3551 20.5523H12.4848C13.031 20.5523 13.4847 20.1023 13.5273 19.5511L13.5325 19.4421C13.5294 18.7585 13.7816 18.1019 14.2327 17.6185C14.6839 17.1351 15.2967 16.865 15.9496 16.8686C16.27 16.8778 16.5852 16.9547 16.9075 17.11L17.1965 17.2682C17.65 17.4814 18.1879 17.3258 18.4606 16.9067L18.5269 16.7957L19.1161 15.7436C19.2554 15.4875 19.2936 15.1824 19.2223 14.896C19.1592 14.6422 19.0143 14.4207 18.8386 14.2882L18.5896 14.1195C18.1136 13.7748 17.7675 13.2563 17.6185 12.6574C17.4545 11.9987 17.5424 11.2971 17.8603 10.7126C18.0342 10.3872 18.2734 10.1073 18.5851 9.87532L18.7321 9.77613C19.2004 9.4827 19.3812 8.85504 19.1648 8.35884L19.1001 8.22529L19.0886 8.19726L18.5538 7.20208C18.3008 6.73175 17.7745 6.52853 17.3279 6.6891L17.2264 6.73265L17.1321 6.78415C16.585 7.12941 15.9323 7.22736 15.3177 7.05641C14.7032 6.88546 14.1774 6.45965 13.858 5.87616C13.6912 5.57504 13.5857 5.23984 13.5448 4.85454L13.5328 4.60249C13.5409 4.29923 13.4341 4.00536 13.2368 3.78783C13.0394 3.57029 12.7682 3.44774 12.4848 3.44774ZM11.924 8.73182C13.6088 8.73182 14.9745 10.195 14.9745 12C14.9745 13.805 13.6088 15.2682 11.924 15.2682C10.2393 15.2682 8.87358 13.805 8.87358 12C8.87358 10.195 10.2393 8.73182 11.924 8.73182ZM11.924 10.1796C10.9856 10.1796 10.2249 10.9946 10.2249 12C10.2249 13.0054 10.9856 13.8204 11.924 13.8204C12.8625 13.8204 13.6232 13.0054 13.6232 12C13.6232 10.9946 12.8625 10.1796 11.924 10.1796Z" fill="#666666"/>
</svg>
