<svg width="22" height="24" viewBox="0 0 22 24" fill="none" xmlns="http://www.w3.org/2000/svg">
<path d="M11.4851 4.49982C13.6977 4.49982 15.2381 6.03379 15.4022 8.28415L17.8203 7.2019C18.8665 6.73455 20.0081 7.52863 20.0912 8.7353L20.0961 8.87632V15.5153C20.0961 16.7526 18.9932 17.6087 17.941 17.237L17.8199 17.1886L15.4021 16.1062C15.2377 18.3551 13.6942 19.8908 11.4851 19.8908H5.75865C3.41552 19.8908 1.82711 18.1717 1.82711 15.7028V8.68782C1.82711 6.21891 3.41552 4.49982 5.75865 4.49982H11.4851ZM11.4851 5.99982H5.75865C4.16877 5.99982 3.1973 7.0512 3.1973 8.68782V15.7028C3.1973 17.3394 4.16877 18.3908 5.75865 18.3908H11.4851C13.0711 18.3908 14.0465 17.3367 14.0465 15.7028L14.0463 15.0173C14.046 15.0066 14.046 14.9959 14.0461 14.9852L14.0465 8.68782C14.0465 7.0516 13.0745 5.99982 11.4851 5.99982ZM18.4003 8.57141L18.3383 8.59056L15.4167 9.89682V14.4928L18.338 15.7999C18.5029 15.8736 18.6811 15.7642 18.7187 15.5854L18.7259 15.5153V8.87632C18.7259 8.68152 18.5657 8.54203 18.4003 8.57141Z" fill="#666666"/>
</svg>
