<svg width="22" height="24" viewBox="0 0 22 24" fill="none" xmlns="http://www.w3.org/2000/svg">
<path d="M14.3711 2C14.6913 2 14.9559 2.26247 14.9978 2.603L15.0035 2.69767L15.0036 3.48626C17.6006 3.68121 19.1909 5.51888 19.1827 8.48579V16.9744C19.1827 20.1193 17.3972 22 14.5274 22H7.39562C4.52925 22 2.74039 20.0872 2.74039 16.9041V8.48579C2.74039 5.51995 4.33576 3.68177 6.92718 3.48635L6.92726 2.69767C6.92726 2.31236 7.21039 2 7.55965 2C7.87981 2 8.1444 2.26247 8.18628 2.603L8.19205 2.69767L8.19192 3.469H13.7385L13.7387 2.69767C13.7387 2.31236 14.0219 2 14.3711 2ZM17.9175 10.283H4.00462L4.00517 16.9041C4.00517 19.2292 5.14202 20.5198 7.188 20.6006L7.39562 20.6047H14.5274C16.7114 20.6047 17.9179 19.3338 17.9179 16.9744L17.9175 10.283ZM14.7148 16.136C15.0641 16.136 15.3472 16.4484 15.3472 16.8337C15.3472 17.1869 15.1093 17.4788 14.8007 17.525L14.7148 17.5314C14.3578 17.5314 14.0746 17.219 14.0746 16.8337C14.0746 16.4805 14.3125 16.1886 14.6212 16.1424L14.7148 16.136ZM10.9732 16.136C11.3225 16.136 11.6056 16.4484 11.6056 16.8337C11.6056 17.1869 11.3677 17.4788 11.059 17.525L10.9732 17.5314C10.6161 17.5314 10.333 17.219 10.333 16.8337C10.333 16.4805 10.5709 16.1886 10.8796 16.1424L10.9732 16.136ZM7.22377 16.136C7.57303 16.136 7.85616 16.4484 7.85616 16.8337C7.85616 17.1869 7.61825 17.4788 7.30958 17.525L7.21596 17.5314C6.86669 17.5314 6.58356 17.219 6.58356 16.8337C6.58356 16.4805 6.82147 16.1886 7.13014 16.1424L7.22377 16.136ZM14.7148 12.5206C15.0641 12.5206 15.3472 12.833 15.3472 13.2183C15.3472 13.5715 15.1093 13.8634 14.8007 13.9096L14.7148 13.916C14.3578 13.916 14.0746 13.6036 14.0746 13.2183C14.0746 12.8651 14.3125 12.5732 14.6212 12.527L14.7148 12.5206ZM10.9732 12.5206C11.3225 12.5206 11.6056 12.833 11.6056 13.2183C11.6056 13.5715 11.3677 13.8634 11.059 13.9096L10.9732 13.916C10.6161 13.916 10.333 13.6036 10.333 13.2183C10.333 12.8651 10.5709 12.5732 10.8796 12.527L10.9732 12.5206ZM7.22377 12.5206C7.57303 12.5206 7.85616 12.833 7.85616 13.2183C7.85616 13.5715 7.61825 13.8634 7.30958 13.9096L7.21596 13.916C6.86669 13.916 6.58356 13.6036 6.58356 13.2183C6.58356 12.8651 6.82147 12.5732 7.13014 12.527L7.22377 12.5206ZM13.7385 4.864H8.19192L8.19205 5.75887C8.19205 6.14418 7.90892 6.45654 7.55965 6.45654C7.2395 6.45654 6.97491 6.19407 6.93303 5.85354L6.92726 5.75887L6.92637 4.88521C5.0413 5.05837 4.00517 6.3066 4.00517 8.48579L4.00462 8.887H17.9175L17.9179 8.48365C17.9239 6.30275 16.8931 5.05711 15.0036 4.88499L15.0035 5.75887C15.0035 6.14418 14.7204 6.45654 14.3711 6.45654C14.051 6.45654 13.7864 6.19407 13.7445 5.85354L13.7387 5.75887L13.7385 4.864Z" fill="#666666"/>
</svg>
