<svg width="23" height="24" viewBox="0 0 23 24" fill="none" xmlns="http://www.w3.org/2000/svg">
<path d="M19.5042 19.2089C19.8364 19.2089 20.1058 19.498 20.1058 19.8545C20.1058 20.1813 19.8794 20.4514 19.5858 20.4941L19.5042 20.5H13.2283C12.8961 20.5 12.6267 20.211 12.6267 19.8545C12.6267 19.5277 12.8531 19.2576 13.1467 19.2148L13.2283 19.2089H19.5042ZM13.4002 4.41662C14.5391 3.19446 16.3864 3.19446 17.5253 4.41662L18.7076 5.6854C19.8465 6.90755 19.8465 8.88985 18.7076 10.112L9.82073 19.6486C9.31257 20.1939 8.62361 20.4999 7.90448 20.4999H4.265C3.9269 20.4999 3.65521 20.201 3.66364 19.8383L3.75519 15.8975C3.77339 15.1526 4.0574 14.4425 4.54829 13.9157L13.4002 4.41662ZM12.7122 6.979L5.39901 14.8287C5.12614 15.1215 4.968 15.5169 4.95789 15.9305L4.8815 19.2084L7.90448 19.2088C8.26019 19.2088 8.60226 19.0745 8.87226 18.8317L8.97002 18.7357L16.3195 10.849L12.7122 6.979ZM16.6745 5.32953C16.0055 4.61156 14.92 4.61156 14.251 5.32953L13.5635 6.066L17.1699 9.936L17.8569 9.19909C18.4888 8.52101 18.5239 7.44433 17.9622 6.72195L17.8569 6.59831L16.6745 5.32953Z" fill="#666666"/>
</svg>
