<svg width="10" height="10" viewBox="0 0 10 10" fill="none" xmlns="http://www.w3.org/2000/svg">
<path fill-rule="evenodd" clip-rule="evenodd" d="M0.573148 5.09471C0.557901 5.66786 1.00687 6.14136 1.90479 7.08837L3.17466 8.42764C4.07259 9.37464 4.52155 9.84815 5.0947 9.86339C5.66785 9.87864 6.14135 9.42968 7.08835 8.53175L8.42762 7.26188C9.37463 6.36395 9.84813 5.91499 9.86338 5.34184C9.87862 4.76869 9.42966 4.29519 8.53173 3.34819L7.26187 2.00892C6.36394 1.06191 5.91497 0.588409 5.34183 0.573163C4.76868 0.557917 4.29518 1.00688 3.34817 1.90481L2.0089 3.17467C1.0619 4.0726 0.588394 4.52157 0.573148 5.09471ZM2.92826 5.48984C2.70769 5.69898 2.3572 5.68787 2.14579 5.4649C1.93437 5.24194 1.94191 4.89135 2.16248 4.68221C2.38305 4.47307 2.73354 4.48418 2.94496 4.70715C3.15637 4.93012 3.14906 5.28048 2.92826 5.48984ZM5.24861 8.62299L2.86099 6.10486L3.54599 5.45536L5.93362 7.97348L5.24861 8.62299ZM7.98862 6.02497L8.67363 5.37547L7.20654 3.8282C6.06634 2.62568 4.82844 3.88246 5.07077 4.7769L4.68766 4.37285L4.00266 5.02236L6.39028 7.54048L7.07529 6.89098L5.8589 5.60811C5.1832 4.89548 6.04119 3.9711 6.77224 4.7421L7.98862 6.02497Z" fill="url(#paint0_linear_1_112)"/>
<defs>
<linearGradient id="paint0_linear_1_112" x1="2.67854" y1="2.53974" x2="7.75799" y2="7.89681" gradientUnits="userSpaceOnUse">
<stop stop-color="#D8C281"/>
<stop offset="1" stop-color="#AC9B69"/>
</linearGradient>
</defs>
</svg>
