<svg width="16" height="16" viewBox="0 0 16 16" fill="none" xmlns="http://www.w3.org/2000/svg">
<path fill-rule="evenodd" clip-rule="evenodd" d="M13.1663 6.53392C13.443 6.53392 13.6663 6.75792 13.6663 7.03392C13.6663 10.0954 11.3166 12.6156 8.3332 12.8713L8.333 14.5C8.333 14.776 8.109 15 7.833 15C7.557 15 7.333 14.776 7.333 14.5L7.33346 12.8713C4.34975 12.616 1.99966 10.0956 1.99966 7.03392C1.99966 6.75792 2.22366 6.53392 2.49966 6.53392C2.77633 6.53392 2.99966 6.75792 2.99966 7.03392C2.99966 9.71259 5.16766 11.8926 7.833 11.8926C10.4983 11.8926 12.6663 9.71259 12.6663 7.03392C12.6663 6.75792 12.8903 6.53392 13.1663 6.53392ZM7.833 0.666656C9.60166 0.666656 11.041 2.11132 11.041 3.88732V7.01266C11.041 8.78799 9.60166 10.2327 7.833 10.2327C6.06433 10.2327 4.625 8.78799 4.625 7.01266V3.88732C4.625 2.11132 6.06433 0.666656 7.833 0.666656ZM7.833 1.66666C6.61566 1.66666 5.625 2.66266 5.625 3.88732V7.01266C5.625 8.23599 6.61566 9.23266 7.833 9.23266C9.05033 9.23266 10.041 8.23599 10.041 7.01266V3.88732C10.041 2.66266 9.05033 1.66666 7.833 1.66666Z" fill="black" fill-opacity="0.46"/>
</svg>
